HIERARCHY
ROOT root
{
	OFFSET	0	13.1	24.9
	CHANNELS 6  Xposition Yposition Zposition Xrotation Yrotation Zrotation
	JOINT spine_1
	{
		OFFSET	0	9.99999	0
		CHANNELS 3  Xrotation Yrotation Zrotation
		JOINT spine_2
		{
			OFFSET	0	112	-10
			CHANNELS 3  Xrotation Yrotation Zrotation
			JOINT spine_3
			{
				OFFSET	0	206.5	19.3
				CHANNELS 3  Xrotation Yrotation Zrotation
				JOINT spine_4
				{
					OFFSET	0	110.4	14.6
					CHANNELS 3  Xrotation Yrotation Zrotation
					JOINT neck_1
					{
						OFFSET	0	71.8	-50.3
						CHANNELS 3  Xrotation Yrotation Zrotation
						JOINT neck_2
						{
							OFFSET	0	86.2	-25.8
							CHANNELS 3  Xrotation Yrotation Zrotation
							JOINT head_ee
							{
								OFFSET	0	179.8	-8.7
								CHANNELS 3  Xrotation Yrotation Zrotation
								End Site
								{
									OFFSET	1	0	0
								}
							}
						}
					}
					JOINT left_clavicle
					{
						OFFSET	-43.2	22.4	-70.8
						CHANNELS 3  Xrotation Yrotation Zrotation
						JOINT left_shoulder
						{
							OFFSET	-93.9	-5.79999	48.7
							CHANNELS 3  Xrotation Yrotation Zrotation
							JOINT left_elbow
							{
								OFFSET	-291.4	-30.8	15.2
								CHANNELS 3  Xrotation Yrotation Zrotation
								JOINT left_lowarm_twist
								{
									OFFSET	-110.7	-3.89999	13.6
									CHANNELS 3  Xrotation Yrotation Zrotation
									JOINT left_hand
									{
										OFFSET	-110.7	-3.89999	13.6
										CHANNELS 3  Xrotation Yrotation Zrotation
										JOINT left_ee
										{
											OFFSET	-80.8	-5.10001	12.1
											CHANNELS 3  Xrotation Yrotation Zrotation
											End Site
											{
												OFFSET	1	0	0
											}
										}
									}
								}
							}
						}
					}
					JOINT right_clavicle
					{
						OFFSET	43.2	22.4	-70.8
						CHANNELS 3  Xrotation Yrotation Zrotation
						JOINT right_shoulder
						{
							OFFSET	93.9	-5.79999	48.7
							CHANNELS 3  Xrotation Yrotation Zrotation
							JOINT right_elbow
							{
								OFFSET	291.4	-30.8	15.2
								CHANNELS 3  Xrotation Yrotation Zrotation
								JOINT right_lowarm_twist
								{
									OFFSET	110.7	-3.89999	13.6
									CHANNELS 3  Xrotation Yrotation Zrotation
									JOINT right_hand
									{
										OFFSET	110.7	-3.89999	13.6
										CHANNELS 3  Xrotation Yrotation Zrotation
										JOINT right_ee
										{
											OFFSET	80.8	-5.10001	12.1
											CHANNELS 3  Xrotation Yrotation Zrotation
											End Site
											{
												OFFSET	1	0	0
											}
										}
									}
								}
							}
						}
					}
				}
			}
		}
	}
	JOINT left_hip
	{
		OFFSET	-82.8	-127.5	0.300001
		CHANNELS 3  Xrotation Yrotation Zrotation
		JOINT left_knee
		{
			OFFSET	-28.2	-396.7	2.2
			CHANNELS 3  Xrotation Yrotation Zrotation
			JOINT left_ankle
			{
				OFFSET	-11.7	-411.3	35.4
				CHANNELS 3  Xrotation Yrotation Zrotation
				JOINT left_toes
				{
					OFFSET	0	-60	-88.6
					CHANNELS 3  Xrotation Yrotation Zrotation
					JOINT left_foot_ee
					{
						OFFSET	-22.5	-16.5	-42.2
						CHANNELS 3  Xrotation Yrotation Zrotation
						End Site
						{
							OFFSET	1	0	0
						}
					}
				}
			}
		}
	}
	JOINT right_hip
	{
		OFFSET	82.8	-127.5	0.300001
		CHANNELS 3  Xrotation Yrotation Zrotation
		JOINT right_knee
		{
			OFFSET	28.2	-396.7	2.2
			CHANNELS 3  Xrotation Yrotation Zrotation
			JOINT right_ankle
			{
				OFFSET	11.7	-411.3	35.4
				CHANNELS 3  Xrotation Yrotation Zrotation
				JOINT right_toes
				{
					OFFSET	0	-60	-88.6
					CHANNELS 3  Xrotation Yrotation Zrotation
					JOINT right_foot_ee
					{
						OFFSET	22.5	-16.5	-42.2
						CHANNELS 3  Xrotation Yrotation Zrotation
						End Site
						{
							OFFSET	1	0	0
						}
					}
				}
			}
		}
	}
}
MOTION
Frames: 5
Frame Time: 0.02
713.34133562 706.778 -1115.54184125 -178.360922542 -50.2089185735 179.675863865 0.390316 -0.0924764 -0.0228308 0.390311 -0.0908362 -0.0286691 0.390356 -0.0831008 -0.0465552 0.390364 -0.0894104 -0.0328467 -15.5192 14.2808 6.09856 -15.9581 23.8224 10.7241 -0.0 0.0 -0.0 6.88808 -1.56791 13.3627 -19.4487 -14.0665 53.4 1.12605 -29.1525 0.292825 25.7422 0.17821 -3.25599 -0.59379 16.9187 3.25227 -0.0 0.0 -0.0 9.1583 -8.27913 -17.4442 -26.8338 18.8314 -51.5338 0.786856 21.295 -0.147934 25.8621 -0.175604 3.27107 -0.384764 -21.6138 -6.40926 0.0 0.0 0.0 9.53763 -53.7979 17.3725 -18.4118 0.311159 2.79617 35.5031 26.684 -4.76633 -23.3468 0.0 0.0 -0.0 0.0 -0.0 22.8743 7.74034 4.21979 -49.57 1.18492 -7.28174 31.5681 0.0243921 4.07548 -3.61912 0.0 0.0 0.0 0.0 0.0 
725.230668599 707.829 -1130.06376753 -178.787749184 -53.0571214964 -179.881157782 0.336075 -0.194475 -0.232747 0.336087 -0.17927 -0.244651 0.336877 -0.125473 -0.27613 0.33681 -0.167508 -0.252849 -16.2727 15.2781 6.51038 -16.8472 25.628 11.678 -0.0 0.0 -0.0 6.9417 -3.01569 13.4556 -18.5201 -14.1294 52.3715 1.23537 -31.4639 0.348002 26.9237 0.151144 -3.40448 -0.57951 13.1987 1.78337 -0.0 0.0 -0.0 9.13575 -8.48547 -17.3849 -26.5205 18.5839 -51.3932 0.799049 21.5948 -0.152392 27.1188 -0.14638 3.42895 -0.305318 -23.935 -7.77432 0.0 0.0 0.0 6.84985 -54.2393 16.0657 -16.8637 0.319793 2.55881 35.3052 27.5951 -4.77491 -24.238 0.0 0.0 -0.0 0.0 -0.0 27.6065 6.58061 2.22628 -51.7604 1.37892 -7.55772 32.7508 2.61567 4.22041 -3.03561 0.0 0.0 0.0 0.0 0.0 
734.83150214 707.712 -1141.85041947 -176.510183061 -54.6629477005 -176.940427896 0.196049 -0.27825 -0.539571 0.196178 -0.243353 -0.556183 0.198659 -0.123091 -0.594481 0.19823 -0.215432 -0.567581 -16.7765 16.754 7.73235 -17.4833 27.8757 13.531 -0.0 0.0 -0.0 7.13005 -4.02373 13.8255 -18.3714 -13.9165 50.5074 1.30245 -32.8283 0.383695 28.0554 0.122351 -3.54618 -0.289714 7.71106 1.32934 -0.0 0.0 -0.0 9.20255 -9.21009 -17.4483 -26.4412 18.4513 -50.8145 0.903506 24.1116 -0.19297 27.1387 -0.145891 3.43144 -0.42102 -26.6807 -8.16733 0.0 0.0 0.0 5.49559 -53.4049 13.2537 -16.5016 0.320887 2.50327 34.5485 27.2991 -4.68309 -25.8489 0.0 0.0 -0.0 0.0 -0.0 30.7276 6.93075 0.19927 -50.0803 1.22917 -7.34668 34.0886 5.39629 4.39028 -2.8921 0.0 0.0 0.0 0.0 0.0 
742.302908764 707.98 -1149.44976275 -175.629776841 -55.5941662263 -175.683992428 0.247063 -0.281487 -0.759817 0.247354 -0.232569 -0.776188 0.250704 -0.0677835 -0.807439 0.249848 -0.194449 -0.786603 -18.4857 16.5236 9.32305 -19.185 26.8973 15.348 -0.0 0.0 -0.0 7.38333 -4.74467 14.3355 -18.0105 -13.8672 48.9042 1.36373 -34.0394 0.417466 28.6725 0.105472 -3.6232 -0.12777 2.61419 0.251154 -0.0 0.0 -0.0 9.28787 -8.76262 -17.6468 -26.0078 18.1834 -51.0387 0.846175 22.7418 -0.170174 28.0017 -0.123782 3.53946 0.0373298 -29.1043 -11.585 0.0 0.0 0.0 2.92404 -50.8083 10.6334 -15.5039 0.322085 2.3502 34.8826 26.1234 -4.68246 -26.8721 0.0 0.0 -0.0 0.0 -0.0 34.4106 7.43245 -0.649679 -43.5142 0.705337 -6.48309 33.8009 8.436 4.41348 -5.68834 0.0 0.0 0.0 0.0 0.0 
742.989663286 707.98 -1154.02382583 -175.544736935 -56.3384001101 -175.581377191 0.247063 -0.281487 -0.759817 0.247354 -0.232569 -0.776188 0.250704 -0.0677835 -0.807439 0.249848 -0.194449 -0.786603 -18.4857 16.5236 9.32305 -19.185 26.8973 15.348 -0.0 0.0 -0.0 7.38333 -4.74467 14.3355 -18.0105 -13.8672 48.9042 1.36373 -34.0394 0.417466 28.6725 0.105472 -3.6232 -0.12777 2.61419 0.251154 -0.0 0.0 -0.0 9.28787 -8.76262 -17.6468 -26.0078 18.1834 -51.0387 0.846175 22.7418 -0.170174 28.0017 -0.123782 3.53946 0.0373298 -29.1043 -11.585 0.0 0.0 0.0 2.92404 -50.8083 10.6334 -15.5039 0.322085 2.3502 34.8826 26.1234 -4.68246 -26.8721 0.0 0.0 -0.0 0.0 -0.0 34.4106 7.43245 -0.649679 -43.5142 0.705337 -6.48309 33.8009 8.436 4.41348 -5.68834 0.0 0.0 0.0 0.0 0.0 
